<svg width="383" height="127" viewBox="0 0 383 127" fill="none" xmlns="http://www.w3.org/2000/svg">
<g clip-path="url(#clip0_242_51)">
<path d="M291.214 -227.249C336.976 -250.703 383.06 -247.271 428.982 -242.679C482.478 -237.33 501.419 -213.876 510.354 -178.387C526.021 -116.152 584.475 -97.5352 627.174 -88.8919C732.877 -67.4953 679.543 -30.7059 639.259 -14.827C561.11 15.978 522.522 36.607 510.354 56.6663C459.436 140.607 382.254 123.045 350.833 105.014C279.13 63.867 247.709 50.6333 205.009 56.6663C153.447 63.9513 129.277 66.7258 82.5486 56.6663C14.0676 41.9239 17.0193 5.74663 34.209 -22.5421C53.899 -54.9454 36.626 -95.5783 15.6788 -120.267C-33.6342 -178.387 24.4722 -205.133 76.9091 -205.133C209.037 -205.133 268.119 -212.848 291.214 -227.249Z" fill="#FFAD50"/>
</g>
<defs>
<clipPath id="clip0_242_51">
<rect width="383" height="127" fill="white"/>
</clipPath>
</defs>
</svg>
