<svg width="648" height="183" viewBox="0 0 648 183" fill="none" xmlns="http://www.w3.org/2000/svg">
<g clip-path="url(#clip0_242_53)">
<path d="M397.786 347.249C352.024 370.703 305.94 367.271 260.018 362.679C206.522 357.33 187.581 333.876 178.646 298.387C162.979 236.152 104.525 217.535 61.8257 208.892C-43.8768 187.495 9.45744 150.706 49.7408 134.827C127.89 104.022 166.478 83.393 178.646 63.3337C229.564 -20.6065 306.746 -3.04504 338.167 14.9858C409.87 56.133 441.291 69.3667 483.991 63.3337C535.553 56.0487 559.723 53.2742 606.451 63.3337C674.932 78.0761 671.981 114.253 654.791 142.542C635.101 174.945 652.374 215.578 673.321 240.267C722.634 298.387 664.528 325.133 612.091 325.133C479.963 325.133 420.881 332.848 397.786 347.249Z" fill="#FFAD50"/>
</g>
<defs>
<clipPath id="clip0_242_53">
<rect width="648" height="183" fill="white"/>
</clipPath>
</defs>
</svg>
