<svg width="764" height="399" viewBox="0 0 764 399" fill="none" xmlns="http://www.w3.org/2000/svg">
<path d="M329.425 20.4414C379.419 -5.12717 429.765 -1.38592 479.934 3.61998C538.378 9.45142 559.071 35.02 568.832 73.7093C585.948 141.556 649.808 161.851 696.456 171.274C811.935 194.599 753.668 234.706 709.659 252.017C624.282 285.599 582.125 308.088 568.832 329.956C513.205 421.464 428.884 402.32 394.558 382.663C316.222 337.806 281.896 323.379 235.247 329.956C178.916 337.898 152.511 340.922 101.461 329.956C26.6462 313.884 29.8708 274.445 48.6503 243.606C70.1614 208.281 51.2908 163.984 28.4064 137.07C-25.4674 73.7093 38.013 44.5521 95.2995 44.5521C239.648 44.5521 304.193 36.1414 329.425 20.4414Z" fill="#FFAD50"/>
</svg>
